:SAMPLES-PER-SECOND 30
:FRAME-RANGE 1-668
:FULLY-SPECIFIED
:DEGREES
648
root  -6.16301 40.1644 -73.8358 -1.09735 -51.1612 8.80243
RightUpLeg  2.64206 -17.923 -14.5336
RightLeg  7.96702 -13.7583 3.12282
RightFoot  -9.16465 -0.370395 16.0995
RightToes  -1.33073e-015 0 -3.6325e-017
Spine  6.04166 0.602384 6.05077
Spine1  -1.80072 1.61005 -4.60502
HEad  -9.80182 35.8739 -15.4843
LeftShoulder1  1.14097 0.585931 -33.0361
LeftArm  2.48389 1.91734 -24.4367
LeftForeArm  -0.483341 -11.4065 -13.6662
LeftHand  0.0761348 0.621524 -1.95862
RightShoulder  4.10801 4.81293 43.1396
RightArm  11.3638 -5.37592 7.10619
RightForeArm  16.5065 -1.90724 17.6292
RightHand  0.185144 4.07722 1.99693
LeftUpLeg  -18.8849 7.13765 -3.6654
LeftLeg  8.78743 9.63152 -2.14863
LeftFoot  -2.9046 0.391284 -5.06751
LeftToes  -2.73175e-012 1.00346e-010 -4.28452e-011
649
root  -6.18754 40.1692 -73.7236 -0.0890503 -47.2532 7.6731
RightUpLeg  4.34894 -16.9864 -14.2819
RightLeg  6.94606 -17.7635 3.6765
RightFoot  -8.69435 -0.455194 17.0106
RightToes  -1.33073e-015 0 -3.6325e-017
Spine  5.91613 0.778219 6.20902
Spine1  -1.96434 1.81772 -4.86187
HEad  -9.68866 33.4521 -14.737
LeftShoulder1  1.10753 0.652954 -32.7825
LeftArm  -3.22844 3.09774 -22.3571
LeftForeArm  -0.733817 -8.33513 -14.9557
LeftHand  0.0873447 1.26232 -2.69051
RightShoulder  4.37242 5.2671 43.5572
RightArm  13.3314 -5.14585 7.64131
RightForeArm  15.2144 -0.46398 17.6692
RightHand  0.246918 4.13775 2.73196
LeftUpLeg  -19.1569 10.4664 -2.54349
LeftLeg  9.15646 12.1164 -1.98021
LeftFoot  -2.37647 0.37787 -4.63758
LeftToes  -2.73175e-012 1.00346e-010 -4.28452e-011
650
root  -6.19409 40.1248 -73.4943 0.783203 -43.8786 6.7395
RightUpLeg  5.58603 -16.3818 -13.9542
RightLeg  6.56928 -20.4419 3.754
RightFoot  -8.49184 -0.512093 18.1103
RightToes  -1.33073e-015 0 -3.6325e-017
Spine  5.80863 0.996758 6.36221
Spine1  -2.22882 2.08288 -5.2182
HEad  -9.47076 31.5564 -14.1422
LeftShoulder1  1.02209 0.854161 -32.506
LeftArm  -6.28655 4.59722 -20.5732
LeftForeArm  -2.25354 -6.582 -15.5135
LeftHand  0.0990892 1.94227 -3.76947
RightShoulder  4.65289 5.72722 44.0622
RightArm  11.8304 -4.29768 8.37377
RightForeArm  16.7484 -0.459634 17.4326
RightHand  0.291094 4.36542 3.17786
LeftUpLeg  -19.5694 14.1869 -1.69545
LeftLeg  9.62621 14.5059 -1.79834
LeftFoot  -1.80482 0.296206 -3.42117
LeftToes  -2.73175e-012 1.00346e-010 -4.28452e-011
651
root  -6.16662 40.0362 -73.1474 1.37952 -40.7516 6.07056
RightUpLeg  6.8057 -16.1269 -13.9693
RightLeg  6.57058 -21.351 3.60183
RightFoot  -8.51367 -0.535352 19.1598
RightToes  -1.33073e-015 0 -3.6325e-017
Spine  5.74243 1.13609 6.48396
Spine1  -2.46709 2.29573 -5.71218
HEad  -9.32228 29.8514 -13.6003
LeftShoulder1  0.952659 1.0202 -32.2871
LeftArm  -7.14091 5.99288 -18.8071
LeftForeArm  -3.99121 -5.55009 -15.8973
LeftHand  0.110716 2.25927 -4.67204
RightShoulder  5.01327 6.3259 44.6038
RightArm  14.8645 -3.61007 9.07562
RightForeArm  13.0209 1.86041 17.4092
RightHand  0.264237 4.09823 2.95768
LeftUpLeg  -19.7136 16.969 -1.02443
LeftLeg  9.76451 17.6827 -1.66667
LeftFoot  -1.54115 0.239683 -2.68798
LeftToes  -2.73175e-012 1.00346e-010 -4.28452e-011
652
root  -6.09405 39.9119 -72.6818 1.87927 -37.6154 5.66254
RightUpLeg  8.22212 -15.9697 -14.3911
RightLeg  6.41832 -20.9891 3.49305
RightFoot  -8.7017 -0.538023 20.5552
RightToes  -1.33073e-015 0 -3.6325e-017
Spine  5.60711 1.16512 6.42304
Spine1  -2.70472 2.37053 -6.1211
HEad  -9.13383 28.2463 -13.0819
LeftShoulder1  0.904187 1.13898 -32.1622
LeftArm  -7.08605 6.77039 -16.9928
LeftForeArm  -5.01902 -4.29001 -16.3984
LeftHand  0.161445 2.02176 -6.06865
RightShoulder  5.32767 6.84202 45.0511
RightArm  12.6842 -2.54851 9.78499
RightForeArm  14.129 2.15033 17.0472
RightHand  0.276601 4.21332 3.06364
LeftUpLeg  -19.6064 17.9998 -0.51108
LeftLeg  9.49388 21.4093 -1.72364
LeftFoot  -1.34634 0.163406 -1.77631
LeftToes  -2.73175e-012 1.00346e-010 -4.28452e-011
653
root  -5.96723 39.7471 -72.1007 2.40314 -34.3423 5.25177
RightUpLeg  9.81594 -15.5138 -14.7672
RightLeg  6.16873 -20.4176 3.16682
RightFoot  -8.85992 -0.551736 22.3975
RightToes  -1.33073e-015 0 -3.6325e-017
Spine  5.45118 1.14936 6.52792
Spine1  -2.84947 2.41241 -6.55251
HEad  -9.00119 26.502 -12.6957
LeftShoulder1  0.884578 1.18195 -32.0245
LeftArm  -8.39495 6.63974 -15.5375
LeftForeArm  -4.37446 -2.32245 -16.7833
LeftHand  0.211857 1.75893 -7.20675
RightShoulder  5.51145 7.14268 45.2963
RightArm  6.80709 -1.33863 10.5727
RightForeArm  19.0589 1.09528 16.3842
RightHand  0.306767 4.75156 3.21104
LeftUpLeg  -19.6973 18.8431 -0.655315
LeftLeg  9.62024 23.362 -1.61947
LeftFoot  -1.38415 0.144336 -1.56151
LeftToes  -2.73175e-012 1.00346e-010 -4.28452e-011
654
root  -5.8185 39.5517 -71.3861 2.63171 -30.6764 5.14557
RightUpLeg  12.0265 -15.5045 -15.6693
RightLeg  5.75271 -19.7379 3.041
RightFoot  -8.97632 -0.576496 24.5815
RightToes  -1.33073e-015 0 -3.6325e-017
Spine  5.12038 1.0762 6.0826
Spine1  -2.61846 2.34201 -6.67813
HEad  -8.92779 24.4616 -12.1679
LeftShoulder1  0.890703 1.1439 -31.6699
LeftArm  -9.07549 5.85131 -14.7197
LeftForeArm  -3.83925 -0.834551 -17.0248
LeftHand  0.224201 1.72931 -7.53872
RightShoulder  5.56771 7.22741 45.4006
RightArm  9.07635 -1.02693 11.1345
RightForeArm  15.9678 4.16971 15.8775
RightHand  0.31597 4.77208 3.30815
LeftUpLeg  -20.3514 21.1826 -2.35116
LeftLeg  11.0596 22.1627 -0.810588
LeftFoot  -0.038852 0.111919 -1.12898
LeftToes  -2.73175e-012 1.00346e-010 -4.28452e-011
655
root  -5.61252 39.3419 -70.5701 2.65936 -26.9872 5.74396
RightUpLeg  13.8005 -16.9987 -17.7713
RightLeg  6.70303 -17.667 2.52452
RightFoot  -9.13233 -0.599868 27.3552
RightToes  -1.33073e-015 0 -3.6325e-017
Spine  4.9277 1.01884 4.72485
Spine1  -2.50341 2.24303 -6.62793
HEad  -8.87546 22.3093 -11.6824
LeftShoulder1  0.912816 1.07267 -31.4742
LeftArm  -9.78514 4.55539 -14.1477
LeftForeArm  -3.60559 -0.0724893 -17.086
LeftHand  0.231895 1.66016 -7.62589
RightShoulder  5.65726 7.38632 45.4587
RightArm  11.5063 -1.23095 11.325
RightForeArm  12.9193 7.29095 14.9373
RightHand  0.327793 4.91084 3.38775
LeftUpLeg  -21.4721 23.8358 -5.56561
LeftLeg  13.089 16.8487 -0.366457
LeftFoot  0.0185047 0.0375989 -0.379264
LeftToes  -2.73175e-012 1.00346e-010 -4.28452e-011
656
root  -5.35042 39.115 -69.6708 2.4223 -23.2258 6.65094
RightUpLeg  14.9195 -20.7989 -20.7713
RightLeg  10.1599 -12.9684 0.493864
RightFoot  -9.21086 -0.662275 31.4336
RightToes  -1.33073e-015 0 -3.6325e-017
Spine  4.92177 0.884685 2.88826
Spine1  -2.26668 1.95846 -6.3993
HEad  -9.09406 20.1711 -11.2635
LeftShoulder1  0.952107 0.963778 -31.413
LeftArm  -10.4053 2.6378 -13.7552
LeftForeArm  -3.40779 0.103999 -17.0672
LeftHand  0.231681 1.66115 -7.67926
RightShoulder  5.72459 7.47451 45.6358
RightArm  13.5817 -1.36191 11.3637
RightForeArm  10.2475 9.86565 13.8483
RightHand  0.325976 4.88309 3.37816
LeftUpLeg  -22.7963 26.5066 -9.60757
LeftLeg  15.959 10.2746 0.376133
LeftFoot  -1.84306 -0.0456744 0.683825
LeftToes  -2.73175e-012 1.00346e-010 -4.28452e-011
657
root  -5.03083 38.9117 -68.7852 2.0871 -19.1462 7.43884
RightUpLeg  14.7192 -24.5701 -23.3899
RightLeg  16.3453 -8.42499 -2.86233
RightFoot  -8.20039 -1.09379 36.5949
RightToes  -1.33073e-015 0 -3.6325e-017
Spine  5.4341 0.617634 1.03743
Spine1  -2.15566 1.42056 -5.95203
HEad  -8.94567 17.9186 -11.0869
LeftShoulder1  1.06396 0.676659 -31.5677
LeftArm  -10.1491 -0.00197032 -13.8817
LeftForeArm  -3.27817 0.0945443 -17.1639
LeftHand  0.217914 1.64199 -7.14576
RightShoulder  5.66985 7.38268 45.5793
RightArm  15.5993 -1.43714 11.4973
RightForeArm  7.92765 11.9383 12.7728
RightHand  0.307062 4.8478 3.17807
LeftUpLeg  -22.6067 24.7208 -11.7886
LeftLeg  18.1639 8.09334 0.89187
LeftFoot  -3.73999 -0.0537483 1.14868
LeftToes  -2.73175e-012 1.00346e-010 -4.28452e-011
658
root  -4.71823 38.845 -67.9121 1.99677 -15.6773 7.73688
RightUpLeg  10.9038 -17.5956 -21.9948
RightLeg  25.9852 -11.3439 -6.1727
RightFoot  -4.31047 -2.30152 35.8304
RightToes  -1.33073e-015 0 -3.6325e-017
Spine  5.9181 0.564817 -0.570076
Spine1  -2.06046 1.01967 -4.93466
HEad  -8.58214 15.8288 -10.9697
LeftShoulder1  1.16426 0.398498 -31.4301
LeftArm  -9.9281 -3.12195 -14.9536
LeftForeArm  -2.77397 0.185981 -17.2538
LeftHand  0.212224 1.58044 -6.84094
RightShoulder  5.72186 7.48776 45.5563
RightArm  17.8889 -1.52706 11.5382
RightForeArm  5.047 13.8806 11.653
RightHand  0.300328 4.74834 3.13869
LeftUpLeg  -21.1561 21.8181 -12.2683
LeftLeg  18.869 8.05166 0.407367
LeftFoot  -4.95765 -0.0824872 2.01503
LeftToes  -2.73175e-012 1.00346e-010 -4.28452e-011
659
root  -4.45385 38.9407 -66.985 1.93579 -12.8324 7.50244
RightUpLeg  5.09182 -11.7359 -20.1462
RightLeg  38.1923 -11.6587 -9.92859
RightFoot  4.51759 -3.19175 22.8586
RightToes  -1.33073e-015 0 -3.6325e-017
Spine  6.21574 0.39105 -1.53227
Spine1  -1.98463 0.603794 -3.51674
HEad  -8.24918 14.4031 -10.4151
LeftShoulder1  1.23247 0.179138 -31.0089
LeftArm  -9.42942 -6.31699 -16.1578
LeftForeArm  -1.92615 -0.162748 -17.2832
LeftHand  0.246896 1.09542 -6.92452
RightShoulder  6.12227 8.14308 46.0124
RightArm  18.4901 -1.1807 11.4856
RightForeArm  3.99238 14.6488 11.1305
RightHand  0.309843 4.83867 3.21298
LeftUpLeg  -18.8503 19.6635 -12.0884
LeftLeg  18.2242 7.8743 -0.200871
LeftFoot  -5.52648 -0.117207 2.96324
LeftToes  -2.73175e-012 1.00346e-010 -4.28452e-011
